IKResults
version=1
nRows=13
nColumns=40
inDegrees=yes

Units are S.I. units (second, meters, Newtons, ...)
Angles are in degrees.

endheader
time	pelvis_tilt	pelvis_list	pelvis_rotation	pelvis_tx	pelvis_ty	pelvis_tz	hip_flexion_r	hip_adduction_r	hip_rotation_r	knee_angle_r	knee_angle_r_beta	ankle_angle_r	subtalar_angle_r	mtp_angle_r	hip_flexion_l	hip_adduction_l	hip_rotation_l	knee_angle_l	knee_angle_l_beta	ankle_angle_l	subtalar_angle_l	mtp_angle_l	lumbar_extension	lumbar_bending	lumbar_rotation	arm_flex_r	arm_add_r	arm_rot_r	elbow_flex_r	pro_sup_r	wrist_flex_r	wrist_dev_r	arm_flex_l	arm_add_l	arm_rot_l	elbow_flex_l	pro_sup_l	wrist_flex_l	wrist_dev_l
      0.00000000	     11.39459053	      0.79620760	     -1.31818124	     -0.91573988	      0.94016106	      1.39946723	     10.00099446	     -4.86800787	    -12.53265752	    -56.13270972	     -0.97970060	      6.74097648	    -14.34051123	     -0.14504705	    -16.45728575	     -2.78706913	     12.15696608	    -13.49575900	     -0.23554543	     14.13649642	     -1.36034662	     -3.16567191	    -24.46131586	     -1.98720179	     -4.63336754	    -10.40825051	    -12.03057686	     -2.11188940	     18.25356051	     89.95437384	      0.00000000	      0.00000000	      7.49108528	     12.72431560	     10.33843611	     23.71925615	     89.95437384	      0.00000000	      0.00000000
      0.01000000	     11.38536014	      0.47797064	     -0.85670853	     -0.90456856	      0.93898653	      1.39848268	     11.10845159	     -4.38607763	    -13.07011837	    -54.48640236	     -0.95096712	      7.77738894	    -14.37976131	      8.39573069	    -17.20500991	     -2.31551306	     12.53616996	    -13.41648781	     -0.23416189	     14.15928778	     -1.58095452	     -9.06969298	    -24.41290101	     -1.44054697	     -5.00313365	    -10.59759631	    -11.85716181	     -2.71890911	     17.25375649	     89.95437384	      0.00000000	      0.00000000	      8.21561887	     12.81985003	     10.39601014	     24.77905193	     89.95437384	      0.00000000	      0.00000000
      0.02000000	     11.39284536	      0.26578337	     -0.23332355	     -0.89318764	      0.93763562	      1.39740381	     12.03923858	     -4.21533285	    -14.07119245	    -52.47096521	     -0.91579110	      7.75358484	    -14.45684955	      8.46251735	    -18.02129123	     -1.97166279	     12.09344976	    -13.32812858	     -0.23261973	     14.57699391	     -1.65959063	     -8.93973916	    -24.36724148	     -0.96972473	     -5.57834531	    -10.81477557	    -11.67661780	     -3.24822561	     16.32086924	     89.95437384	      0.00000000	      0.00000000	      8.74314946	     12.99481974	     10.36707579	     26.16293295	     89.95437384	      0.00000000	      0.00000000
      0.03000000	     10.92149402	      0.52205367	     -0.15878969	     -0.88221836	      0.93520831	      1.39642515	     13.78693505	     -4.65790239	    -14.67580142	    -50.79938411	     -0.88661651	      7.72987332	    -13.93595519	      8.28785632	    -18.15234204	     -2.26468588	     12.35601130	    -13.52319693	     -0.23602431	     14.77052455	     -1.64100206	     -8.71613046	    -23.84636311	     -1.11565171	     -5.62804476	    -11.45484312	    -11.68827680	     -3.23055692	     16.03401521	     89.95437384	      0.00000000	      0.00000000	      9.53238922	     13.02375476	     10.31548340	     27.24122955	     89.95437384	      0.00000000	      0.00000000
      0.04000000	     11.28447245	     -0.09074507	      0.74870055	     -0.87056139	      0.93432317	      1.39571162	     13.86717858	     -3.93613318	    -15.93128064	    -47.92477483	     -0.83644511	      6.87739123	    -14.02543441	      8.55906409	    -19.41420073	     -1.35176722	     11.53777798	    -13.35563750	     -0.23309985	     15.54140836	     -1.71937953	     -8.74496218	    -24.20063245	     -0.18294568	     -6.44098706	    -11.34224912	    -11.37292547	     -4.50780779	     14.74371021	     89.95437384	      0.00000000	      0.00000000	      9.77409904	     13.31902641	     10.21205174	     29.15087109	     89.95437384	      0.00000000	      0.00000000
      0.05000000	     10.99387501	     -0.08178073	      1.26911118	     -0.85908126	      0.93200400	      1.39484729	     14.95585259	     -4.05793406	    -16.90553771	    -45.54077518	     -0.79483647	      6.08873259	    -13.17730458	      8.51978458	    -19.79091319	     -1.20890152	     11.04877850	    -13.49724131	     -0.23557130	     16.04251803	     -1.68928706	     -8.65786652	    -23.84453957	      0.01414990	     -6.90409553	    -11.62735234	    -11.20455723	     -5.08581586	     13.91581558	     89.95437384	      0.00000000	      0.00000000	     10.30432380	     13.49192164	     10.03972276	     30.58009030	     89.95437384	      0.00000000	      0.00000000
      0.06000000	     10.88676745	     -0.25701251	      1.91155565	     -0.84757939	      0.93002004	      1.39400147	     15.67587325	     -4.02977815	    -18.13176157	    -42.88365935	     -0.74846105	      5.03352065	    -12.09138149	      8.41046371	    -20.32506084	     -0.82194531	     10.50029145	    -13.73886394	     -0.23978841	     16.53050949	     -1.38459493	     -8.59717235	    -23.71870860	      0.43954755	     -7.40147975	    -11.83010858	    -11.01652829	     -6.02814877	     13.09607857	     89.95437384	      0.00000000	      0.00000000	     10.78984794	     13.63338530	      9.93422217	     32.15975499	     89.95437384	      0.00000000	      0.00000000
      0.07000000	     10.70851830	     -0.31099580	      2.35328924	     -0.83598124	      0.92780602	      1.39339478	     16.41432015	     -4.14679841	    -19.50828318	    -40.07041962	     -0.69936075	      4.08636335	    -10.55053649	      8.16904480	    -20.79249788	     -0.63386974	     10.08724895	    -13.96960168	     -0.24381554	     17.00418744	     -1.16253965	     -8.56267703	    -23.52114048	      0.67670604	     -7.73341639	    -12.05715989	    -10.86927162	     -6.78286064	     12.37726633	     89.95437384	      0.00000000	      0.00000000	     11.25735079	     13.77443934	      9.79351528	     33.75665690	     89.95437384	      0.00000000	      0.00000000
      0.08000000	     10.10977400	     -0.06684738	      2.47125600	     -0.82458495	      0.92486495	      1.39309470	     17.76837784	     -4.42131923	    -20.05760284	    -37.50982049	     -0.65466987	      3.30161250	     -9.12066336	      7.94206944	    -20.78642629	     -0.87491930	     10.03571472	    -14.24100264	     -0.24855238	     17.28706636	     -1.11379014	     -8.41785876	    -22.90032172	      0.48253698	     -7.88495852	    -12.54539047	    -10.81061824	     -6.95795779	     12.17927547	     89.95437384	      0.00000000	      0.00000000	     11.80888395	     13.88711353	      9.67867246	     35.09605730	     89.95437384	      0.00000000	      0.00000000
      0.09000000	      9.67016607	     -0.10393523	      2.73036211	     -0.81305619	      0.92226853	      1.39301138	     18.65708770	     -4.33303080	    -20.82068161	    -34.55405090	     -0.60308196	      2.50778649	     -7.23201242	      7.69123570	    -20.98970355	     -0.74629079	      9.81926152	    -14.44726212	     -0.25215229	     17.65067463	     -0.97415531	     -8.38566134	    -22.46544688	      0.59586698	     -8.10362567	    -12.78216636	    -10.71912263	     -7.32158725	     11.72909029	     89.95437384	      0.00000000	      0.00000000	     12.18850687	     14.04105429	      9.55755231	     36.69986895	     89.95437384	      0.00000000	      0.00000000
      0.10000000	     10.35001619	     -0.57034589	      3.66405117	     -0.80014185	      0.92128325	      1.39207900	     17.76594983	     -4.35816205	    -24.01302691	    -31.24955903	     -0.54540769	      1.19679263	     -4.03256990	     -3.44759385	    -22.67542216	      0.05961551	      8.76115433	    -14.19617950	     -0.24777007	     17.79542328	      0.22858191	    -10.68603437	    -23.11562396	      1.47732792	     -8.55333834	    -12.90923967	    -10.55129706	     -8.94633034	     11.00378934	     89.95437384	      0.00000000	      0.00000000	     12.62046655	     14.05989481	      9.37003163	     38.36076562	     89.95437384	      0.00000000	      0.00000000
      0.11000000	      9.95145803	     -0.68702614	      3.89263422	     -0.78813254	      0.91862271	      1.39224002	     18.52432464	     -4.20545698	    -25.10665391	    -28.55209039	     -0.49832799	      0.94035615	     -2.19544198	     -3.62747861	    -22.92318607	      0.30227960	      8.55884524	    -14.47980275	     -0.25272023	     18.18070606	      0.45595242	    -10.60530028	    -22.69142585	      1.65545356	     -8.63448920	    -13.16923173	    -10.51382445	     -9.12521423	     10.60767340	     89.95437384	      0.00000000	      0.00000000	     13.01460114	     14.14016649	      9.23384976	     39.82183460	     89.95437384	      0.00000000	      0.00000000
      0.12000000	     10.00810947	     -0.83144879	      4.38893236	     -0.77540831	      0.91667863	      1.39193271	     18.56193533	     -4.29913064	    -27.41103983	    -26.06272888	     -0.45488043	      1.41049809	      1.08409801	     -4.69664040	    -23.81731916	      0.71436485	      8.28336447	    -14.49875936	     -0.25305109	     18.06797403	      0.40125995	    -10.59074522	    -22.70434550	      2.02456927	     -8.88848395	    -13.54646847	    -10.49147113	     -9.63837857	     10.60401527	     89.95437384	      0.00000000	      0.00000000	     13.39551022	     14.20187224	      8.98448218	     41.25256418	     89.95437384	      0.00000000	      0.00000000
